<svg width="842" height="595" viewBox="0 0 842 595" fill="none" xmlns="http://www.w3.org/2000/svg">
<g clip-path="url(#clip0_167_495)">
<rect width="595" height="842" transform="matrix(0 -1 1 0 0 595)" fill="white"/>
<g filter="url(#filter0_d_167_495)">
<path d="M460.493 168.136C464.238 168.239 469.123 169.978 472.745 171.082C492.268 177.036 506.894 185.829 521.082 200.635C534.657 214.803 542.84 232.506 547.634 251.332C548.637 255.272 550.067 260.032 549.997 264.088C548.807 262.869 547.158 256.728 546.188 254.62C543.576 248.946 540.323 243.277 537.003 237.991C529.178 225.535 519.573 213.031 509.06 202.718C499.891 193.723 488.795 185.462 478.101 178.376C474.409 175.956 470.627 173.679 466.76 171.55C464.896 170.53 462.808 169.721 461.055 168.529C460.866 168.4 460.681 168.267 460.493 168.136Z" fill="#203264"/>
<path d="M293 211.059C294.331 212.304 295.078 216.405 295.804 218.214C297.971 223.621 301.207 228.909 304.124 233.937C320.988 263.003 345.607 284.263 374.038 301.537C376.334 302.932 378.762 304.021 381.075 305.376C378.24 305.145 374.948 303.862 372.152 303.089C356.83 298.85 342.941 292.824 330.699 282.42C313.376 267.698 302.613 248.823 296.484 227.123C295.03 221.975 293.437 216.394 293 211.059Z" fill="#203264"/>
<path d="M488.891 281.423C488.923 281.523 488.968 281.619 488.985 281.722C489.185 282.904 488.246 285.173 487.878 286.401C484.472 297.91 479.312 308.823 472.579 318.754C458.296 339.393 437.125 352.358 413.128 358.657C407.671 360.089 402.027 360.974 396.483 362C396.947 361.012 399.481 360.453 400.548 360.073C410.669 356.471 420.182 351.383 429.179 345.531C448.717 332.821 464.08 314.945 478.11 296.584C481.81 291.744 485.997 286.791 488.891 281.423Z" fill="#203264"/>
<path d="M442.499 112L442.654 112.277C441.508 112.996 440.345 113.357 439.057 113.755L438.466 113.933C434.886 115.037 431.432 116.898 428.047 118.5C402.681 130.499 383.779 150.811 366.654 172.5C360.79 179.928 354.653 187.55 350.227 195.951L349.901 195.538C352.979 182.884 358.096 170.817 365.053 159.814C379.552 137.025 400.463 123.37 426.08 115.898C431.469 114.327 437.022 113.214 442.499 112Z" fill="#203264"/>
<path d="M459.12 183.274C471.121 185.038 482.811 188.56 492.914 195.524C515.271 210.933 529.742 237.078 534.53 263.486C533.262 262.739 532.074 259.539 531.409 258.24C526.778 249.185 522.012 240.224 515.572 232.293C504.421 218.564 491.546 204.712 477.057 194.485C472.979 191.607 468.624 189.042 464.356 186.453C462.808 185.514 460.993 184.732 459.571 183.634C459.418 183.517 459.27 183.394 459.12 183.274Z" fill="#6ABE5C"/>
<path d="M475.263 276.373C475.394 277.693 474.86 279.16 474.545 280.459C472.346 289.53 468.408 298.812 463.166 306.528C447.738 329.241 421.82 342.196 395.475 347.149C395.532 346.968 395.542 346.766 395.647 346.608C396.246 345.709 408.243 340.296 410.175 339.27C413.095 337.721 415.944 335.917 418.7 334.091C439.118 320.565 461.806 296.957 475.263 276.373Z" fill="#6ABE5C"/>
<path d="M308.461 210.997C309.995 212.026 315.783 224.954 317.33 227.707C319.757 231.984 322.394 236.139 325.231 240.155C328.238 244.353 331.908 248.27 335.385 252.083C349.63 267.708 364.81 280.427 383.43 290.547C373.765 291.36 357.321 283.725 349.445 278.388C330.579 265.606 317.126 244.082 310.89 222.398C309.821 218.678 309.186 214.799 308.461 210.997Z" fill="#6ABE5C"/>
<path d="M439.29 128.487C440.097 128.407 440.605 128.272 441.371 128.607C439.861 130.598 431.558 133.679 428.823 135.194C426.114 136.724 423.482 138.387 420.937 140.177C402.527 153.019 377.645 178.545 365.836 197.541C365.544 198.06 365.305 198.352 364.84 198.723C364.821 198.621 364.79 198.52 364.781 198.416C364.531 195.321 371.195 178.967 372.871 175.621C374.364 172.632 376.093 169.767 378.042 167.054C392.236 147.266 415.13 132.429 439.29 128.487Z" fill="#6ABE5C"/>
<path d="M322.6 208.737C324.828 210.934 328.075 218.656 329.92 221.839C332.168 225.718 334.822 229.487 337.479 233.095C346.227 244.975 359.634 258.221 371.539 266.926C376.191 270.327 381.587 272.948 386.076 276.511L386.537 276.883C376.497 277.832 363.845 271.178 355.958 265.523C340.821 254.669 329.498 236.747 324.504 218.869C323.585 215.583 323.148 212.103 322.6 208.737Z" fill="#203264"/>
<path d="M458.392 197.171C466.232 196.784 473.781 201.224 480.348 205.029C486.105 208.364 491.974 212.635 496.611 217.442C507.162 228.38 514.805 244.024 518.667 258.595C519.054 260.057 520.066 263.491 519.345 264.751C517.12 260.6 515.117 256.361 512.683 252.32C504.055 237.999 492.44 225.182 479.782 214.317C472.999 208.495 465.657 204.166 458.732 198.739C458.274 198.379 458.018 198.159 457.83 197.587L458.392 197.171Z" fill="#203264"/>
<path d="M462.244 271.675L462.537 272.221C460.629 280.499 457.176 287.966 452.82 295.224C440.17 316.303 419.279 326.283 396.336 332.078L396.183 331.947C396.22 331.275 396.523 331.333 397.059 331.024C401.904 328.228 406.57 325.525 411.281 322.477C431.579 309.344 447.105 290.216 462.244 271.675Z" fill="#203264"/>
<path d="M442.188 143.264L442.418 143.294L442.594 143.569C440.774 145.574 433.646 148.618 430.803 150.403C426.671 152.996 422.608 155.899 418.831 158.991C402.549 172.319 392.25 186.967 378.976 202.712L378.649 202.692L378.312 202.27C378.46 194.87 385.763 182.202 389.623 176.201C401.558 157.649 421.156 147.774 442.188 143.264Z" fill="#203264"/>
<path d="M456.563 211.553C457.892 211.663 459.248 211.754 460.554 212.034C476.458 215.432 489.514 230.113 497.735 243.329C500.277 247.416 505.793 259.384 504.695 264.022L504.136 263.643C499.05 258.463 496.166 252.011 492.146 246.052C487.042 238.487 479.778 231.073 472.8 225.226C468.936 221.987 464.795 219.356 460.44 216.843C458.853 215.927 457.071 215.222 455.566 214.197C454.855 213.714 454.643 213.473 454.288 212.722C454.906 211.855 455.565 211.859 456.563 211.553Z" fill="#6ABE5C"/>
<path d="M337.513 210.659C338.834 211.26 340.326 211.87 341.286 213.01C343.407 215.529 344.712 219.479 346.286 222.429C348.029 225.696 350.314 228.72 352.606 231.618C359.322 240.111 367.36 248.285 376.469 254.182C379.924 256.418 383.73 258.122 387.133 260.389C387.823 260.849 388.718 261.321 388.876 262.153C388.116 262.407 387.345 262.668 386.56 262.833C381.853 263.82 372.014 258.894 368.167 256.253C356.798 248.446 345.332 235.208 340.398 222.285C338.968 218.541 338.255 214.585 337.513 210.659Z" fill="#6ABE5C"/>
<path d="M447.099 269.266L447.646 269.696C447.66 269.893 447.68 270.09 447.69 270.288C448.018 277.052 436.339 293.398 431.583 298.343C423.131 307.13 408.186 316.928 395.779 317.212L395.448 317.121L395.391 316.762C400.354 313.233 405.601 310.194 410.569 306.714C416.914 302.27 422.757 296.975 428.098 291.377C430.973 288.379 433.706 285.248 436.289 281.994C439.64 277.753 442.806 272.538 447.099 269.266Z" fill="#6ABE5C"/>
<path d="M437.564 159.077L441.558 158.838C437.876 162.807 433.147 165.31 428.667 168.269C424.722 170.845 421.026 173.782 417.624 177.043C413.271 181.178 409.238 185.637 405.558 190.383C401.792 195.266 398.683 200.459 394.082 204.649L391.414 206.789C392.663 200.091 395.916 194.343 399.398 188.572C408.127 174.104 420.991 163.175 437.564 159.077Z" fill="#6ABE5C"/>
</g>
<g filter="url(#filter1_d_167_495)">
<path d="M242.43 448.7C237.67 448.7 233.307 447.567 229.34 445.3C225.373 443.033 222.172 439.803 219.735 435.61C217.355 431.417 216.165 426.402 216.165 420.565C216.165 414.785 217.298 409.742 219.565 405.435C221.832 401.072 225.033 397.7 229.17 395.32C233.363 392.883 238.293 391.665 243.96 391.665C246 391.665 248.097 391.863 250.25 392.26C252.46 392.657 254.5 393.337 256.37 394.3C258.24 395.207 259.742 396.425 260.875 397.955C262.065 399.485 262.66 401.383 262.66 403.65C262.717 406.087 261.98 408.24 260.45 410.11C258.92 411.923 256.767 412.83 253.99 412.83C252.29 412.83 251.072 412.433 250.335 411.64C249.655 410.79 249.343 410.167 249.4 409.77C249.4 409.6 249.74 409.317 250.42 408.92C251.157 408.467 251.865 407.815 252.545 406.965C253.282 406.058 253.65 404.868 253.65 403.395C253.65 400.845 252.8 398.833 251.1 397.36C249.4 395.83 246.992 395.065 243.875 395.065C240.475 395.065 237.415 396.028 234.695 397.955C232.032 399.882 229.935 402.715 228.405 406.455C226.875 410.138 226.11 414.672 226.11 420.055C226.11 424.588 226.903 428.725 228.49 432.465C230.133 436.148 232.4 439.095 235.29 441.305C238.237 443.458 241.637 444.535 245.49 444.535C248.55 444.535 251.157 443.912 253.31 442.665C255.52 441.362 257.503 439.293 259.26 436.46C259.77 435.497 260.677 435.412 261.98 436.205C262.49 436.545 262.887 436.97 263.17 437.48C263.453 437.933 263.397 438.415 263 438.925C260.847 441.645 258.807 443.713 256.88 445.13C254.953 446.49 252.857 447.425 250.59 447.935C248.323 448.445 245.603 448.7 242.43 448.7ZM291.463 447.85C291.463 447.85 291.151 447.057 290.528 445.47C289.961 443.827 289.196 441.702 288.233 439.095C287.326 436.432 286.278 433.542 285.088 430.425C283.955 427.252 282.793 424.107 281.603 420.99C280.47 417.817 279.421 414.927 278.458 412.32C277.551 409.713 276.786 407.617 276.163 406.03C275.596 404.443 275.313 403.65 275.313 403.65C274.406 401.327 273.5 399.655 272.593 398.635C271.686 397.615 270.326 396.935 268.513 396.595C267.72 396.425 267.153 396.283 266.813 396.17C266.53 396.057 266.388 395.547 266.388 394.64C266.388 393.677 266.728 393.167 267.408 393.11C268.088 392.997 268.881 392.94 269.788 392.94C273.585 392.997 276.531 393.705 278.628 395.065C280.725 396.368 282.396 398.635 283.643 401.865L295.968 435.015H296.223L307.953 400.93C308.576 399.117 308.605 397.983 308.038 397.53C307.471 397.02 306.196 396.765 304.213 396.765C303.646 396.765 303.165 396.708 302.768 396.595C302.371 396.482 302.145 395.943 302.088 394.98C302.088 394.527 302.201 394.102 302.428 393.705C302.655 393.308 303.023 393.11 303.533 393.11C305.346 393.167 306.905 393.223 308.208 393.28C309.568 393.337 311.098 393.365 312.798 393.365C313.931 393.365 314.866 393.365 315.603 393.365C316.34 393.308 317.076 393.28 317.813 393.28C318.606 393.223 319.598 393.167 320.788 393.11C321.355 393.11 321.751 393.308 321.978 393.705C322.205 394.102 322.318 394.527 322.318 394.98C322.261 395.943 322.035 396.482 321.638 396.595C321.298 396.708 320.816 396.765 320.193 396.765C318.04 396.765 316.34 397.162 315.093 397.955C313.846 398.748 312.77 400.278 311.863 402.545C311.863 402.488 311.551 403.282 310.928 404.925C310.361 406.512 309.596 408.665 308.633 411.385C307.67 414.048 306.593 416.995 305.403 420.225C304.27 423.455 303.108 426.685 301.918 429.915C300.728 433.145 299.651 436.12 298.688 438.84C297.725 441.56 296.931 443.742 296.308 445.385C295.741 447.028 295.458 447.85 295.458 447.85H291.463ZM314.693 447.255C314.126 447.255 313.729 447.057 313.503 446.66C313.276 446.263 313.163 445.838 313.163 445.385C313.219 444.422 313.446 443.883 313.843 443.77C314.239 443.657 314.721 443.6 315.288 443.6C316.818 443.6 317.979 443.288 318.773 442.665C319.566 442.042 320.189 441.22 320.643 440.2C321.153 439.18 321.634 438.132 322.088 437.055L336.963 401.865C337.529 400.505 337.643 399.485 337.303 398.805C336.963 398.068 336.396 397.558 335.603 397.275C334.809 396.935 333.931 396.68 332.968 396.51C332.118 396.34 331.551 396.198 331.268 396.085C330.984 395.915 330.843 395.405 330.843 394.555C330.843 393.592 331.183 393.082 331.863 393.025C332.543 392.912 333.336 392.855 334.243 392.855C336.566 392.855 338.549 393.082 340.193 393.535C341.836 393.988 343.253 394.867 344.443 396.17C345.633 397.417 346.738 399.315 347.758 401.865L362.038 437.055C362.434 438.018 362.859 439.01 363.313 440.03C363.766 441.05 364.361 441.9 365.098 442.58C365.891 443.203 366.883 443.543 368.073 443.6C368.696 443.6 369.178 443.657 369.518 443.77C369.914 443.883 370.141 444.422 370.198 445.385C370.198 445.838 370.056 446.263 369.773 446.66C369.546 447.057 369.178 447.255 368.668 447.255C366.854 447.142 365.268 447.057 363.908 447C362.548 447 361.018 447 359.318 447C355.974 447 352.461 447.085 348.778 447.255C348.211 447.255 347.814 447.057 347.588 446.66C347.361 446.263 347.248 445.838 347.248 445.385C347.304 444.422 347.531 443.883 347.928 443.77C348.324 443.657 348.806 443.6 349.373 443.6C352.149 443.6 353.651 443.09 353.878 442.07C354.161 441.05 353.906 439.378 353.113 437.055L350.223 430H329.228C328.378 432.153 327.754 433.712 327.358 434.675C327.018 435.638 326.791 436.262 326.678 436.545C326.621 436.828 326.564 436.998 326.508 437.055C325.884 438.982 325.544 440.427 325.488 441.39C325.488 442.297 325.941 442.892 326.848 443.175C327.811 443.458 329.398 443.6 331.608 443.6C332.231 443.6 332.713 443.657 333.053 443.77C333.449 443.883 333.676 444.422 333.733 445.385C333.733 445.838 333.591 446.263 333.308 446.66C333.081 447.057 332.713 447.255 332.203 447.255C330.389 447.142 328.803 447.057 327.443 447C326.139 447 324.638 447 322.938 447C321.804 447 320.841 447 320.048 447C319.311 447.057 318.546 447.085 317.753 447.085C316.959 447.142 315.939 447.198 314.693 447.255ZM330.843 426.345H348.693L340.108 404.5H339.853L330.843 426.345ZM419.156 448.7C414.396 448.7 410.004 447.708 405.981 445.725C402.014 443.685 398.812 440.597 396.376 436.46C393.996 432.267 392.806 426.968 392.806 420.565C392.806 414.785 394.052 409.742 396.546 405.435C399.096 401.072 402.609 397.7 407.086 395.32C411.562 392.883 416.691 391.665 422.471 391.665C424.454 391.665 426.494 391.892 428.591 392.345C430.687 392.798 432.642 393.507 434.456 394.47C436.269 395.377 437.714 396.595 438.791 398.125C439.924 399.655 440.491 401.497 440.491 403.65C440.491 405.973 439.782 408.098 438.366 410.025C436.949 411.895 434.966 412.83 432.416 412.83C431.339 412.83 430.206 412.575 429.016 412.065C427.882 411.498 427.287 410.733 427.231 409.77C427.231 409.6 427.571 409.288 428.251 408.835C428.987 408.382 429.696 407.702 430.376 406.795C431.112 405.832 431.481 404.585 431.481 403.055C431.481 400.618 430.546 398.692 428.676 397.275C426.806 395.802 424.397 395.065 421.451 395.065C417.994 395.065 414.849 396.028 412.016 397.955C409.182 399.882 406.916 402.715 405.216 406.455C403.572 410.138 402.751 414.672 402.751 420.055C402.751 425.155 403.544 429.547 405.131 433.23C406.774 436.857 409.041 439.662 411.931 441.645C414.877 443.572 418.277 444.535 422.131 444.535C424.001 444.535 425.616 444.422 426.976 444.195C428.336 443.968 429.781 443.628 431.311 443.175V434.505C431.311 432.918 431.254 431.672 431.141 430.765C431.027 429.802 430.631 429.093 429.951 428.64C429.271 428.187 428.081 427.96 426.381 427.96C425.814 427.96 425.276 427.903 424.766 427.79C424.312 427.677 424.057 427.138 424.001 426.175C424.001 425.722 424.142 425.297 424.426 424.9C424.766 424.503 425.219 424.305 425.786 424.305C427.599 424.362 429.129 424.418 430.376 424.475C431.622 424.532 433.209 424.56 435.136 424.56C437.062 424.56 438.621 424.532 439.811 424.475C441.057 424.418 442.559 424.362 444.316 424.305C444.882 424.305 445.279 424.503 445.506 424.9C445.789 425.297 445.931 425.722 445.931 426.175C445.874 427.138 445.619 427.677 445.166 427.79C444.712 427.903 444.174 427.96 443.551 427.96C441.964 427.96 440.831 428.215 440.151 428.725C439.527 429.178 439.131 429.887 438.961 430.85C438.847 431.813 438.791 433.032 438.791 434.505V444.535C436.581 445.555 434.512 446.377 432.586 447C430.716 447.623 428.704 448.048 426.551 448.275C424.454 448.558 421.989 448.7 419.156 448.7ZM451.658 447.255C451.261 447.255 450.921 447.085 450.638 446.745C450.411 446.348 450.298 445.952 450.298 445.555C450.411 444.705 450.638 444.252 450.978 444.195C451.318 444.082 451.771 444.025 452.338 444.025C453.925 444.025 455.001 443.77 455.568 443.26C456.135 442.693 456.446 441.957 456.503 441.05C456.616 440.143 456.673 439.208 456.673 438.245V418.78C456.673 417.76 456.616 416.825 456.503 415.975C456.446 415.068 456.135 414.36 455.568 413.85C455.001 413.283 453.925 413 452.338 413C451.828 413 451.346 412.943 450.893 412.83C450.496 412.66 450.298 412.15 450.298 411.3C450.298 410.45 450.751 409.94 451.658 409.77C454.265 409.373 456.248 408.977 457.608 408.58C459.025 408.183 460.073 407.843 460.753 407.56C461.49 407.277 462.141 407.107 462.708 407.05C463.161 406.993 463.53 407.078 463.813 407.305C464.153 407.532 464.323 407.985 464.323 408.665V413.935H464.578C466.505 412.065 468.488 410.535 470.528 409.345C472.568 408.098 474.438 407.475 476.138 407.475C478.121 407.475 479.623 408.212 480.643 409.685C481.72 411.158 482.258 412.717 482.258 414.36C482.258 415.777 481.805 417.165 480.898 418.525C479.991 419.828 478.631 420.48 476.818 420.48C475.911 420.48 475.175 420.31 474.608 419.97C474.098 419.573 473.815 419.29 473.758 419.12C473.758 419.007 474.013 418.667 474.523 418.1C475.09 417.533 475.373 416.825 475.373 415.975C475.373 414.955 475.09 414.133 474.523 413.51C474.013 412.887 473.305 412.575 472.398 412.575C471.435 412.575 470.188 413.057 468.658 414.02C467.185 414.983 465.768 416.145 464.408 417.505V438.245C464.408 439.208 464.436 440.143 464.493 441.05C464.606 441.957 464.946 442.693 465.513 443.26C466.136 443.77 467.241 444.025 468.828 444.025C469.338 444.025 469.763 444.082 470.103 444.195C470.5 444.252 470.726 444.705 470.783 445.555C470.783 445.952 470.67 446.348 470.443 446.745C470.216 447.085 469.876 447.255 469.423 447.255C467.78 447.142 466.25 447.057 464.833 447C463.473 447 462.028 447 460.498 447C458.968 447 457.523 447 456.163 447C454.803 447.057 453.301 447.142 451.658 447.255ZM506.56 448.02C502.593 448.02 499.108 447.085 496.105 445.215C493.158 443.345 490.863 440.908 489.22 437.905C487.576 434.902 486.755 431.7 486.755 428.3C486.755 424.957 487.35 421.982 488.54 419.375C489.73 416.768 491.288 414.587 493.215 412.83C495.198 411.073 497.351 409.742 499.675 408.835C501.998 407.928 504.293 407.475 506.56 407.475C510.526 407.475 513.983 408.41 516.93 410.28C519.933 412.15 522.256 414.587 523.9 417.59C525.543 420.593 526.365 423.795 526.365 427.195C526.365 430.538 525.741 433.513 524.495 436.12C523.305 438.727 521.718 440.908 519.735 442.665C517.808 444.422 515.683 445.753 513.36 446.66C511.036 447.567 508.77 448.02 506.56 448.02ZM506.56 444.875C509.336 444.875 511.518 444.053 513.105 442.41C514.748 440.767 515.91 438.613 516.59 435.95C517.326 433.23 517.695 430.312 517.695 427.195C517.695 424.192 517.326 421.443 516.59 418.95C515.853 416.457 514.663 414.445 513.02 412.915C511.376 411.385 509.223 410.62 506.56 410.62C503.783 410.62 501.573 411.442 499.93 413.085C498.286 414.672 497.125 416.797 496.445 419.46C495.765 422.067 495.425 424.957 495.425 428.13C495.425 431.077 495.765 433.825 496.445 436.375C497.181 438.925 498.371 440.993 500.015 442.58C501.658 444.11 503.84 444.875 506.56 444.875ZM550.237 448.02C546.384 448.02 543.324 446.858 541.057 444.535C538.79 442.212 537.657 439.152 537.657 435.355V419.63C537.657 418.61 537.6 417.675 537.487 416.825C537.43 415.918 537.119 415.21 536.552 414.7C535.985 414.133 534.909 413.85 533.322 413.85C532.812 413.85 532.33 413.793 531.877 413.68C531.48 413.51 531.282 413 531.282 412.15C531.282 411.3 531.735 410.79 532.642 410.62C535.249 410.223 537.232 409.827 538.592 409.43C540.009 409.033 541.085 408.693 541.822 408.41C542.559 408.127 543.21 407.957 543.777 407.9C544.23 407.843 544.599 407.928 544.882 408.155C545.222 408.382 545.392 408.835 545.392 409.515V435.27C545.392 437.14 545.789 438.67 546.582 439.86C547.432 441.05 548.48 441.928 549.727 442.495C550.974 443.062 552.249 443.345 553.552 443.345C555.535 443.345 557.264 443.005 558.737 442.325C560.21 441.588 561.4 440.767 562.307 439.86C563.214 438.897 563.809 438.103 564.092 437.48V419.63C564.092 418.61 564.035 417.675 563.922 416.825C563.865 415.918 563.554 415.21 562.987 414.7C562.42 414.133 561.344 413.85 559.757 413.85C559.247 413.85 558.765 413.793 558.312 413.68C557.915 413.51 557.717 413 557.717 412.15C557.717 411.3 558.17 410.79 559.077 410.62C561.684 410.223 563.667 409.827 565.027 409.43C566.444 409.033 567.52 408.693 568.257 408.41C568.994 408.127 569.645 407.957 570.212 407.9C570.665 407.843 571.034 407.928 571.317 408.155C571.657 408.382 571.827 408.835 571.827 409.515V438.925C571.827 442.268 574.065 443.94 578.542 443.94C579.165 443.94 579.562 444.11 579.732 444.45C579.902 444.79 579.987 445.158 579.987 445.555C579.987 446.348 579.505 446.83 578.542 447L564.857 447.935C564.46 447.935 564.234 447.765 564.177 447.425C564.12 447.085 564.092 446.688 564.092 446.235V441.475H563.922C562.845 442.495 561.684 443.515 560.437 444.535C559.247 445.555 557.83 446.377 556.187 447C554.6 447.68 552.617 448.02 550.237 448.02ZM583.787 464.68C583.39 464.68 583.05 464.482 582.767 464.085C582.54 463.745 582.427 463.377 582.427 462.98C582.483 462.13 582.682 461.648 583.022 461.535C583.418 461.478 583.872 461.45 584.382 461.45C585.912 461.45 586.96 461.167 587.527 460.6C588.15 460.09 588.518 459.382 588.632 458.475C588.745 457.568 588.802 456.633 588.802 455.67V418.78C588.802 417.76 588.745 416.825 588.632 415.975C588.575 415.068 588.263 414.36 587.697 413.85C587.13 413.283 586.053 413 584.467 413C583.957 413 583.475 412.943 583.022 412.83C582.625 412.66 582.427 412.15 582.427 411.3C582.427 410.45 582.88 409.94 583.787 409.77C586.393 409.373 588.377 408.977 589.737 408.58C591.153 408.183 592.202 407.843 592.882 407.56C593.618 407.277 594.27 407.107 594.837 407.05C595.29 406.993 595.658 407.078 595.942 407.305C596.282 407.532 596.452 407.985 596.452 408.665V412.745H596.707C598.293 411.272 600.192 410.025 602.402 409.005C604.612 407.985 606.737 407.475 608.777 407.475C612.233 407.475 615.293 408.325 617.957 410.025C620.62 411.725 622.717 414.105 624.247 417.165C625.777 420.168 626.542 423.682 626.542 427.705C626.542 431.785 625.607 435.355 623.737 438.415C621.867 441.475 619.458 443.855 616.512 445.555C613.565 447.198 610.42 448.02 607.077 448.02C604.527 448.02 602.458 447.737 600.872 447.17C599.342 446.66 598.01 446.065 596.877 445.385H596.537V455.67C596.537 456.633 596.593 457.568 596.707 458.475C596.82 459.382 597.188 460.09 597.812 460.6C598.435 461.167 599.483 461.45 600.957 461.45C601.467 461.45 601.892 461.478 602.232 461.535C602.628 461.648 602.855 462.13 602.912 462.98C602.912 463.377 602.798 463.745 602.572 464.085C602.345 464.482 602.005 464.68 601.552 464.68C599.908 464.567 598.378 464.482 596.962 464.425C595.602 464.425 594.157 464.425 592.627 464.425C591.097 464.425 589.652 464.425 588.292 464.425C586.932 464.482 585.43 464.567 583.787 464.68ZM606.397 445.13C608.607 445.13 610.448 444.592 611.922 443.515C613.395 442.382 614.557 440.965 615.407 439.265C616.313 437.508 616.937 435.638 617.277 433.655C617.673 431.615 617.872 429.717 617.872 427.96C617.872 425.297 617.447 422.747 616.597 420.31C615.803 417.817 614.5 415.777 612.687 414.19C610.93 412.547 608.607 411.725 605.717 411.725C603.563 411.725 601.778 412.178 600.362 413.085C598.945 413.935 597.67 414.955 596.537 416.145V438.925C597.16 440.398 598.293 441.815 599.937 443.175C601.637 444.478 603.79 445.13 606.397 445.13Z" fill="#203264"/>
</g>
</g>
<defs>
<filter id="filter0_d_167_495" x="291" y="112" width="261" height="256" filterUnits="userSpaceOnUse" color-interpolation-filters="sRGB">
<feFlood flood-opacity="0" result="BackgroundImageFix"/>
<feColorMatrix in="SourceAlpha" type="matrix" values="0 0 0 0 0 0 0 0 0 0 0 0 0 0 0 0 0 0 127 0" result="hardAlpha"/>
<feOffset dy="4"/>
<feGaussianBlur stdDeviation="1"/>
<feComposite in2="hardAlpha" operator="out"/>
<feColorMatrix type="matrix" values="0 0 0 0 0 0 0 0 0 0 0 0 0 0 0 0 0 0 0.25 0"/>
<feBlend mode="normal" in2="BackgroundImageFix" result="effect1_dropShadow_167_495"/>
<feBlend mode="normal" in="SourceGraphic" in2="effect1_dropShadow_167_495" result="shape"/>
</filter>
<filter id="filter1_d_167_495" x="213.165" y="391.665" width="416.377" height="81.015" filterUnits="userSpaceOnUse" color-interpolation-filters="sRGB">
<feFlood flood-opacity="0" result="BackgroundImageFix"/>
<feColorMatrix in="SourceAlpha" type="matrix" values="0 0 0 0 0 0 0 0 0 0 0 0 0 0 0 0 0 0 127 0" result="hardAlpha"/>
<feOffset dy="5"/>
<feGaussianBlur stdDeviation="1.5"/>
<feComposite in2="hardAlpha" operator="out"/>
<feColorMatrix type="matrix" values="0 0 0 0 0 0 0 0 0 0 0 0 0 0 0 0 0 0 0.25 0"/>
<feBlend mode="normal" in2="BackgroundImageFix" result="effect1_dropShadow_167_495"/>
<feBlend mode="normal" in="SourceGraphic" in2="effect1_dropShadow_167_495" result="shape"/>
</filter>
<clipPath id="clip0_167_495">
<rect width="595" height="842" fill="white" transform="matrix(0 -1 1 0 0 595)"/>
</clipPath>
</defs>
</svg>
