<svg width="955" height="256" viewBox="0 0 955 256" fill="none" xmlns="http://www.w3.org/2000/svg">
<g>
<path d="M331.529 154.667C324.547 154.667 318.146 153.005 312.327 149.679C306.508 146.354 301.812 141.616 298.237 135.465C294.746 129.314 293 121.957 293 113.395C293 104.916 294.662 97.5179 297.988 91.1998C301.313 84.7995 306.009 79.853 312.078 76.3617C318.229 72.7867 325.461 71 333.774 71C336.766 71 339.842 71.2905 343.001 71.8728C346.243 72.4552 349.235 73.4527 351.978 74.8654C354.722 76.1959 356.925 77.9826 358.587 80.227C360.333 82.4715 361.206 85.2557 361.206 88.5813C361.289 92.1562 360.208 95.3146 357.964 98.0577C355.719 100.717 352.561 102.048 348.487 102.048C345.993 102.048 344.207 101.465 343.125 100.302C342.128 99.0553 341.67 98.1414 341.754 97.559C341.754 97.3096 342.253 96.8945 343.25 96.3121C344.331 95.6476 345.37 94.6911 346.367 93.4442C347.449 92.1137 347.988 90.368 347.988 88.2072C347.988 84.4665 346.742 81.515 344.248 79.3542C341.754 77.1098 338.221 75.9876 333.649 75.9876C328.661 75.9876 324.173 77.4002 320.182 80.227C316.276 83.0538 313.2 87.2097 310.955 92.6961C308.711 98.0988 307.589 104.75 307.589 112.647C307.589 119.296 308.752 125.365 311.08 130.851C313.49 136.254 316.816 140.577 321.055 143.819C325.378 146.977 330.366 148.557 336.018 148.557C340.507 148.557 344.331 147.643 347.49 145.814C350.732 143.903 353.641 140.868 356.218 136.712C356.966 135.299 358.297 135.174 360.208 136.338C360.956 136.836 361.539 137.46 361.954 138.208C362.369 138.873 362.287 139.58 361.704 140.328C358.546 144.318 355.553 147.351 352.727 149.43C349.9 151.425 346.825 152.797 343.5 153.545C340.174 154.293 336.184 154.667 331.529 154.667ZM403.458 153.42C403.458 153.42 403 152.257 402.086 149.929C401.255 147.519 400.132 144.401 398.72 140.577C397.389 136.671 395.852 132.431 394.106 127.859C392.444 123.204 390.74 118.591 388.994 114.018C387.332 109.363 385.793 105.124 384.38 101.3C383.05 97.4754 381.928 94.4007 381.014 92.0726C380.182 89.7446 379.767 88.5813 379.767 88.5813C378.436 85.1736 377.107 82.7209 375.777 81.2246C374.446 79.7283 372.451 78.7308 369.792 78.232C368.628 77.9826 367.797 77.7744 367.298 77.6086C366.883 77.4428 366.674 76.6947 366.674 75.3642C366.674 73.9515 367.173 73.2033 368.171 73.1197C369.168 72.9539 370.331 72.8703 371.662 72.8703C377.232 72.954 381.554 73.9926 384.63 75.9876C387.706 77.899 390.157 81.2246 391.986 85.9628L410.067 134.592H410.441L427.648 84.5912C428.562 81.9316 428.604 80.2681 427.773 79.6036C426.941 78.8555 425.07 78.4814 422.161 78.4814C421.33 78.4814 420.624 78.3978 420.042 78.232C419.459 78.0663 419.128 77.2756 419.044 75.8629C419.044 75.1984 419.21 74.5749 419.543 73.9925C419.876 73.4102 420.416 73.1197 421.164 73.1197C423.824 73.2033 426.11 73.2855 428.022 73.3691C430.017 73.4527 432.261 73.4938 434.755 73.4938C436.417 73.4938 437.789 73.4938 438.87 73.4938C439.951 73.4102 441.031 73.3691 442.112 73.3691C443.275 73.2855 444.73 73.2033 446.476 73.1197C447.308 73.1197 447.889 73.4102 448.222 73.9925C448.555 74.5749 448.72 75.1984 448.72 75.8629C448.637 77.2756 448.305 78.0663 447.723 78.232C447.224 78.3978 446.517 78.4814 445.603 78.4814C442.445 78.4814 439.951 79.0638 438.122 80.227C436.293 81.3903 434.714 83.6348 433.384 86.9604C433.384 86.8767 432.926 88.0415 432.012 90.4516C431.18 92.7797 430.058 95.938 428.645 99.9281C427.233 103.835 425.653 108.158 423.907 112.896C422.245 117.634 420.54 122.372 418.795 127.111C417.049 131.849 415.469 136.213 414.057 140.203C412.644 144.193 411.479 147.394 410.565 149.804C409.734 152.214 409.318 153.42 409.318 153.42H403.458ZM437.535 152.547C436.703 152.547 436.121 152.257 435.789 151.675C435.456 151.092 435.291 150.469 435.291 149.804C435.373 148.392 435.706 147.601 436.288 147.435C436.869 147.269 437.576 147.186 438.408 147.186C440.652 147.186 442.355 146.728 443.52 145.814C444.683 144.9 445.597 143.694 446.263 142.198C447.012 140.702 447.717 139.164 448.383 137.585L470.204 85.9628C471.034 83.9678 471.201 82.4715 470.703 81.474C470.204 80.3928 469.372 79.6447 468.209 79.2295C467.044 78.7308 465.756 78.3567 464.343 78.1073C463.097 77.858 462.265 77.6496 461.85 77.4839C461.433 77.2345 461.226 76.4863 461.226 75.2394C461.226 73.8268 461.725 73.0786 462.722 72.995C463.72 72.8293 464.883 72.7457 466.214 72.7457C469.622 72.7457 472.53 73.0787 474.942 73.7432C477.352 74.4077 479.431 75.6972 481.177 77.6086C482.922 79.4379 484.543 82.2221 486.04 85.9628L506.987 137.585C507.568 138.997 508.192 140.452 508.858 141.949C509.522 143.445 510.395 144.692 511.476 145.689C512.64 146.603 514.095 147.102 515.84 147.186C516.754 147.186 517.461 147.269 517.96 147.435C518.541 147.601 518.874 148.392 518.958 149.804C518.958 150.469 518.749 151.092 518.334 151.675C518.001 152.257 517.461 152.547 516.713 152.547C514.052 152.382 511.726 152.257 509.731 152.173C507.736 152.173 505.491 152.173 502.997 152.173C498.092 152.173 492.939 152.298 487.536 152.547C486.704 152.547 486.122 152.257 485.79 151.675C485.457 151.092 485.291 150.469 485.291 149.804C485.374 148.392 485.707 147.601 486.289 147.435C486.87 147.269 487.577 147.186 488.409 147.186C492.481 147.186 494.684 146.438 495.017 144.941C495.432 143.445 495.058 140.992 493.895 137.585L489.656 127.235H458.857C457.61 130.394 456.695 132.681 456.114 134.093C455.615 135.506 455.282 136.421 455.116 136.836C455.033 137.252 454.949 137.501 454.867 137.585C453.952 140.411 453.453 142.531 453.371 143.944C453.371 145.274 454.035 146.147 455.366 146.562C456.778 146.977 459.106 147.186 462.348 147.186C463.262 147.186 463.969 147.269 464.468 147.435C465.049 147.601 465.382 148.392 465.466 149.804C465.466 150.469 465.257 151.092 464.842 151.675C464.509 152.257 463.969 152.547 463.221 152.547C460.56 152.382 458.234 152.257 456.239 152.173C454.326 152.173 452.124 152.173 449.63 152.173C447.966 152.173 446.554 152.173 445.391 152.173C444.309 152.257 443.187 152.298 442.024 152.298C440.859 152.382 439.363 152.464 437.535 152.547ZM461.226 121.874H487.411L474.817 89.8282H474.443L461.226 121.874ZM590.776 154.667C583.794 154.667 577.351 153.212 571.449 150.303C565.63 147.31 560.933 142.78 557.359 136.712C553.868 130.561 552.122 122.788 552.122 113.395C552.122 104.916 553.95 97.5179 557.609 91.1998C561.349 84.7995 566.503 79.853 573.07 76.3617C579.636 72.7867 587.16 71 595.639 71C598.548 71 601.541 71.333 604.617 71.9975C607.692 72.662 610.56 73.7021 613.221 75.1148C615.88 76.4453 618 78.232 619.58 80.4764C621.242 82.7209 622.074 85.423 622.074 88.5813C622.074 91.989 621.034 95.1063 618.956 97.9331C616.878 100.676 613.969 102.048 610.228 102.048C608.648 102.048 606.986 101.674 605.24 100.926C603.577 100.094 602.704 98.9717 602.622 97.559C602.622 97.3096 603.121 96.8519 604.118 96.1874C605.198 95.5229 606.238 94.5254 607.236 93.1949C608.315 91.7822 608.856 89.9529 608.856 87.7085C608.856 84.1335 607.485 81.3082 604.742 79.2295C601.998 77.0687 598.465 75.9876 594.143 75.9876C589.072 75.9876 584.458 77.4002 580.302 80.227C576.145 83.0538 572.821 87.2097 570.327 92.6961C567.916 98.0988 566.711 104.75 566.711 112.647C566.711 120.128 567.874 126.571 570.203 131.974C572.613 137.294 575.938 141.409 580.178 144.318C584.499 147.145 589.487 148.557 595.141 148.557C597.884 148.557 600.253 148.392 602.248 148.059C604.243 147.726 606.363 147.227 608.607 146.562V133.844C608.607 131.516 608.523 129.688 608.358 128.358C608.19 126.945 607.61 125.905 606.612 125.24C605.615 124.576 603.869 124.243 601.375 124.243C600.543 124.243 599.754 124.159 599.006 123.993C598.34 123.828 597.966 123.037 597.884 121.624C597.884 120.96 598.091 120.336 598.507 119.754C599.006 119.171 599.67 118.881 600.502 118.881C603.162 118.965 605.406 119.047 607.236 119.13C609.063 119.214 611.391 119.255 614.218 119.255C617.043 119.255 619.33 119.214 621.076 119.13C622.904 119.047 625.107 118.965 627.685 118.881C628.515 118.881 629.097 119.171 629.43 119.754C629.846 120.336 630.054 120.96 630.054 121.624C629.97 123.037 629.596 123.828 628.932 123.993C628.266 124.159 627.476 124.243 626.562 124.243C624.234 124.243 622.572 124.617 621.575 125.365C620.659 126.029 620.079 127.07 619.829 128.482C619.662 129.895 619.58 131.683 619.58 133.844V148.557C616.338 150.054 613.303 151.259 610.477 152.173C607.734 153.087 604.783 153.711 601.624 154.044C598.548 154.459 594.932 154.667 590.776 154.667ZM638.455 152.547C637.873 152.547 637.374 152.298 636.959 151.799C636.626 151.217 636.46 150.636 636.46 150.054C636.626 148.807 636.959 148.142 637.457 148.059C637.956 147.893 638.621 147.809 639.453 147.809C641.781 147.809 643.359 147.435 644.191 146.687C645.022 145.855 645.479 144.776 645.562 143.445C645.728 142.114 645.812 140.743 645.812 139.33V110.776C645.812 109.28 645.728 107.908 645.562 106.661C645.479 105.331 645.022 104.292 644.191 103.544C643.359 102.712 641.781 102.297 639.453 102.297C638.704 102.297 637.997 102.214 637.333 102.048C636.75 101.798 636.46 101.05 636.46 99.8034C636.46 98.5565 637.124 97.8084 638.455 97.559C642.279 96.9766 645.188 96.3957 647.183 95.8133C649.262 95.2309 650.799 94.7322 651.797 94.3171C652.878 93.9019 653.833 93.6525 654.665 93.5689C655.329 93.4853 655.871 93.61 656.286 93.943C656.784 94.276 657.034 94.9405 657.034 95.938V103.669H657.408C660.235 100.926 663.144 98.6812 666.136 96.9356C669.129 95.1063 671.872 94.1924 674.366 94.1924C677.275 94.1924 679.478 95.2735 680.974 97.4343C682.554 99.5951 683.343 101.882 683.343 104.292C683.343 106.371 682.679 108.407 681.348 110.402C680.018 112.314 678.023 113.27 675.363 113.27C674.033 113.27 672.953 113.021 672.121 112.522C671.373 111.939 670.958 111.524 670.874 111.275C670.874 111.109 671.249 110.61 671.997 109.779C672.828 108.947 673.244 107.908 673.244 106.661C673.244 105.165 672.828 103.959 671.997 103.045C671.249 102.131 670.21 101.674 668.879 101.674C667.467 101.674 665.637 102.381 663.393 103.793C661.232 105.206 659.154 106.911 657.159 108.906V139.33C657.159 140.743 657.2 142.114 657.283 143.445C657.449 144.776 657.948 145.855 658.779 146.687C659.693 147.435 661.314 147.809 663.642 147.809C664.391 147.809 665.014 147.893 665.513 148.059C666.095 148.142 666.427 148.807 666.51 150.054C666.51 150.636 666.345 151.217 666.012 151.799C665.679 152.298 665.18 152.547 664.515 152.547C662.105 152.382 659.861 152.257 657.782 152.173C655.787 152.173 653.667 152.173 651.423 152.173C649.178 152.173 647.059 152.173 645.064 152.173C643.069 152.257 640.865 152.382 638.455 152.547ZM718.993 153.67C713.174 153.67 708.061 152.298 703.656 149.555C699.333 146.812 695.967 143.237 693.556 138.831C691.145 134.426 689.94 129.729 689.94 124.741C689.94 119.837 690.813 115.473 692.559 111.649C694.304 107.825 696.59 104.625 699.417 102.048C702.326 99.4704 705.484 97.5179 708.893 96.1874C712.301 94.8569 715.668 94.1924 718.993 94.1924C724.811 94.1924 729.882 95.564 734.205 98.3071C738.611 101.05 742.018 104.625 744.43 109.03C746.84 113.436 748.046 118.133 748.046 123.121C748.046 128.025 747.131 132.389 745.303 136.213C743.557 140.037 741.229 143.237 738.32 145.814C735.493 148.392 732.376 150.344 728.968 151.675C725.559 153.005 722.235 153.67 718.993 153.67ZM718.993 149.056C723.065 149.056 726.266 147.85 728.594 145.44C731.004 143.03 732.709 139.87 733.707 135.964C734.786 131.974 735.328 127.693 735.328 123.121C735.328 118.715 734.786 114.683 733.707 111.026C732.626 107.368 730.88 104.417 728.47 102.173C726.058 99.9281 722.9 98.8059 718.993 98.8059C714.919 98.8059 711.678 100.012 709.267 102.422C706.856 104.75 705.153 107.867 704.155 111.774C703.158 115.598 702.659 119.837 702.659 124.492C702.659 128.815 703.158 132.846 704.155 136.587C705.235 140.328 706.98 143.361 709.392 145.689C711.802 147.934 715.003 149.056 718.993 149.056ZM783.065 153.67C777.413 153.67 772.924 151.965 769.598 148.557C766.273 145.15 764.611 140.661 764.611 135.091V112.023C764.611 110.527 764.527 109.155 764.361 107.908C764.278 106.578 763.821 105.539 762.99 104.791C762.158 103.959 760.58 103.544 758.252 103.544C757.503 103.544 756.796 103.461 756.132 103.295C755.549 103.045 755.259 102.297 755.259 101.05C755.259 99.8034 755.924 99.0553 757.254 98.8059C761.078 98.2235 763.987 97.6426 765.982 97.0602C768.061 96.4779 769.639 95.9791 770.721 95.564C771.802 95.1488 772.757 94.8994 773.588 94.8158C774.253 94.7322 774.794 94.8569 775.209 95.1899C775.708 95.5229 775.958 96.1874 775.958 97.185V134.966C775.958 137.709 776.54 139.954 777.703 141.699C778.95 143.445 780.487 144.733 782.317 145.565C784.146 146.396 786.016 146.812 787.928 146.812C790.837 146.812 793.373 146.313 795.534 145.315C797.695 144.234 799.44 143.03 800.771 141.699C802.101 140.287 802.974 139.122 803.389 138.208V112.023C803.389 110.527 803.306 109.155 803.14 107.908C803.056 106.578 802.6 105.539 801.768 104.791C800.937 103.959 799.358 103.544 797.03 103.544C796.282 103.544 795.575 103.461 794.91 103.295C794.328 103.045 794.038 102.297 794.038 101.05C794.038 99.8034 794.702 99.0553 796.033 98.8059C799.857 98.2235 802.766 97.6426 804.761 97.0602C806.84 96.4779 808.418 95.9791 809.499 95.564C810.58 95.1488 811.535 94.8994 812.367 94.8158C813.032 94.7322 813.573 94.8569 813.988 95.1899C814.487 95.5229 814.736 96.1874 814.736 97.185V140.328C814.736 145.232 818.019 147.684 824.587 147.684C825.501 147.684 826.083 147.934 826.332 148.433C826.582 148.931 826.706 149.471 826.706 150.054C826.706 151.217 825.999 151.924 824.587 152.173L804.512 153.545C803.929 153.545 803.598 153.296 803.514 152.797C803.43 152.298 803.389 151.716 803.389 151.051V144.068H803.14C801.56 145.565 799.857 147.061 798.028 148.557C796.282 150.054 794.203 151.259 791.793 152.173C789.465 153.171 786.556 153.67 783.065 153.67ZM832.281 178.109C831.698 178.109 831.2 177.818 830.785 177.236C830.452 176.737 830.286 176.197 830.286 175.615C830.368 174.368 830.66 173.661 831.159 173.495C831.739 173.412 832.406 173.371 833.154 173.371C835.398 173.371 836.935 172.956 837.767 172.124C838.681 171.376 839.221 170.337 839.388 169.007C839.554 167.676 839.638 166.304 839.638 164.892V110.776C839.638 109.28 839.554 107.908 839.388 106.661C839.305 105.331 838.847 104.292 838.017 103.544C837.185 102.712 835.605 102.297 833.278 102.297C832.53 102.297 831.823 102.214 831.159 102.048C830.576 101.798 830.286 101.05 830.286 99.8034C830.286 98.5565 830.95 97.8084 832.281 97.559C836.104 96.9766 839.014 96.3957 841.009 95.8133C843.086 95.2309 844.625 94.7322 845.623 94.3171C846.702 93.9019 847.659 93.6525 848.491 93.5689C849.155 93.4853 849.695 93.61 850.112 93.943C850.61 94.276 850.86 94.9405 850.86 95.938V101.923H851.234C853.56 99.7623 856.346 97.9331 859.588 96.4368C862.83 94.9405 865.947 94.1924 868.94 94.1924C874.009 94.1924 878.498 95.4393 882.406 97.9331C886.313 100.427 889.389 103.918 891.633 108.407C893.878 112.812 895 117.967 895 123.869C895 129.854 893.628 135.091 890.885 139.58C888.142 144.068 884.608 147.56 880.287 150.054C875.964 152.464 871.35 153.67 866.446 153.67C862.705 153.67 859.67 153.254 857.344 152.423C855.099 151.675 853.145 150.802 851.483 149.804H850.984V164.892C850.984 166.304 851.066 167.676 851.234 169.007C851.399 170.337 851.939 171.376 852.855 172.124C853.769 172.956 855.306 173.371 857.468 173.371C858.216 173.371 858.84 173.412 859.339 173.495C859.92 173.661 860.252 174.368 860.336 175.615C860.336 176.197 860.169 176.737 859.837 177.236C859.504 177.818 859.006 178.109 858.341 178.109C855.929 177.943 853.685 177.818 851.608 177.735C849.613 177.735 847.493 177.735 845.249 177.735C843.004 177.735 840.884 177.735 838.889 177.735C836.894 177.818 834.691 177.943 832.281 178.109ZM865.448 149.43C868.69 149.43 871.391 148.641 873.553 147.061C875.714 145.399 877.419 143.32 878.666 140.827C879.995 138.249 880.91 135.506 881.409 132.597C881.99 129.604 882.282 126.82 882.282 124.243C882.282 120.336 881.658 116.596 880.411 113.021C879.246 109.363 877.335 106.371 874.676 104.043C872.098 101.633 868.69 100.427 864.451 100.427C861.291 100.427 858.673 101.091 856.595 102.422C854.517 103.669 852.646 105.165 850.984 106.911V140.328C851.898 142.489 853.56 144.567 855.972 146.562C858.466 148.474 861.624 149.43 865.448 149.43Z" fill="#203264"/>
</g>
<g>
<path d="M169.493 56.136C173.238 56.239 178.123 57.978 181.745 59.082C201.268 65.036 215.894 73.829 230.082 88.635C243.657 102.803 251.84 120.506 256.634 139.332C257.637 143.272 259.067 148.032 258.997 152.088C257.807 150.869 256.158 144.728 255.188 142.62C252.576 136.946 249.323 131.277 246.003 125.991C238.178 113.535 228.573 101.031 218.06 90.718C208.891 81.723 197.795 73.462 187.101 66.376C183.409 63.956 179.627 61.679 175.76 59.55C173.896 58.53 171.808 57.721 170.055 56.529C169.866 56.4 169.681 56.267 169.493 56.136Z" fill="#203264"/>
<path d="M2 99.059C3.331 100.304 4.07799 104.405 4.80399 106.214C6.97099 111.621 10.207 116.909 13.124 121.937C29.988 151.003 54.607 172.263 83.038 189.537C85.334 190.932 87.762 192.021 90.075 193.376C87.24 193.145 83.948 191.862 81.152 191.089C65.83 186.85 51.941 180.824 39.699 170.42C22.376 155.698 11.613 136.823 5.48401 115.123C4.03001 109.975 2.437 104.394 2 99.059Z" fill="#203264"/>
<path d="M197.891 169.423C197.923 169.523 197.968 169.619 197.985 169.722C198.185 170.904 197.246 173.173 196.878 174.401C193.472 185.91 188.312 196.823 181.579 206.754C167.296 227.393 146.125 240.358 122.128 246.657C116.671 248.089 111.027 248.974 105.483 250C105.947 249.012 108.481 248.453 109.548 248.073C119.669 244.471 129.182 239.383 138.179 233.531C157.717 220.821 173.08 202.945 187.11 184.584C190.81 179.744 194.997 174.791 197.891 169.423Z" fill="#203264"/>
<path d="M151.499 0L151.654 0.277C150.508 0.996 149.345 1.357 148.057 1.755L147.466 1.933C143.886 3.037 140.432 4.898 137.047 6.5C111.681 18.499 92.779 38.811 75.654 60.5C69.79 67.928 63.653 75.55 59.227 83.951L58.901 83.538C61.979 70.884 67.096 58.817 74.053 47.814C88.552 25.025 109.463 11.37 135.08 3.898C140.469 2.327 146.022 1.214 151.499 0Z" fill="#203264"/>
<path d="M168.12 71.274C180.121 73.038 191.811 76.56 201.914 83.524C224.271 98.933 238.742 125.078 243.53 151.486C242.262 150.739 241.074 147.539 240.409 146.24C235.778 137.185 231.012 128.224 224.572 120.293C213.421 106.564 200.546 92.712 186.057 82.485C181.979 79.607 177.624 77.042 173.356 74.453C171.808 73.514 169.993 72.732 168.571 71.634C168.418 71.517 168.27 71.394 168.12 71.274Z" fill="#6ABE5C"/>
<path d="M184.263 164.373C184.394 165.693 183.86 167.16 183.545 168.459C181.346 177.53 177.408 186.812 172.166 194.528C156.738 217.241 130.82 230.196 104.475 235.149C104.532 234.968 104.542 234.766 104.647 234.608C105.246 233.709 117.243 228.296 119.175 227.27C122.095 225.721 124.944 223.917 127.7 222.091C148.118 208.565 170.806 184.957 184.263 164.373Z" fill="#6ABE5C"/>
<path d="M17.461 98.9969C18.995 100.026 24.783 112.954 26.33 115.707C28.757 119.984 31.394 124.139 34.231 128.155C37.238 132.353 40.908 136.27 44.385 140.083C58.63 155.708 73.81 168.427 92.43 178.547C82.765 179.36 66.321 171.725 58.445 166.388C39.579 153.606 26.126 132.082 19.89 110.398C18.821 106.678 18.186 102.799 17.461 98.9969Z" fill="#6ABE5C"/>
<path d="M148.29 16.487C149.097 16.407 149.605 16.272 150.371 16.607C148.861 18.598 140.558 21.679 137.823 23.194C135.114 24.724 132.482 26.387 129.937 28.177C111.527 41.019 86.645 66.545 74.836 85.541C74.544 86.06 74.305 86.352 73.84 86.723C73.821 86.621 73.79 86.52 73.781 86.416C73.531 83.321 80.195 66.967 81.871 63.621C83.364 60.632 85.093 57.767 87.042 55.054C101.236 35.266 124.13 20.429 148.29 16.487Z" fill="#6ABE5C"/>
<path d="M31.6 96.7371C33.828 98.9341 37.075 106.656 38.92 109.839C41.168 113.718 43.822 117.487 46.479 121.095C55.227 132.975 68.634 146.221 80.539 154.926C85.191 158.327 90.587 160.948 95.076 164.511L95.537 164.883C85.497 165.832 72.845 159.178 64.958 153.523C49.821 142.669 38.498 124.747 33.504 106.869C32.585 103.583 32.148 100.103 31.6 96.7371Z" fill="#203264"/>
<path d="M167.392 85.171C175.232 84.784 182.781 89.224 189.348 93.029C195.105 96.364 200.974 100.635 205.611 105.442C216.162 116.38 223.805 132.024 227.667 146.595C228.054 148.057 229.066 151.491 228.345 152.751C226.12 148.6 224.117 144.361 221.683 140.32C213.055 125.999 201.44 113.182 188.782 102.317C181.999 96.495 174.657 92.166 167.732 86.739C167.274 86.379 167.018 86.159 166.83 85.587L167.392 85.171Z" fill="#203264"/>
<path d="M171.244 159.675L171.537 160.221C169.629 168.499 166.176 175.966 161.82 183.224C149.17 204.303 128.279 214.283 105.336 220.078L105.183 219.947C105.22 219.275 105.523 219.333 106.059 219.024C110.904 216.228 115.57 213.525 120.281 210.477C140.579 197.344 156.105 178.216 171.244 159.675Z" fill="#203264"/>
<path d="M151.188 31.264L151.418 31.294L151.594 31.569C149.774 33.574 142.646 36.618 139.803 38.403C135.671 40.996 131.608 43.899 127.831 46.991C111.549 60.319 101.25 74.967 87.976 90.712L87.649 90.692L87.312 90.27C87.46 82.87 94.763 70.202 98.623 64.201C110.558 45.649 130.156 35.774 151.188 31.264Z" fill="#203264"/>
<path d="M165.563 99.553C166.892 99.663 168.248 99.754 169.554 100.034C185.458 103.432 198.514 118.113 206.735 131.329C209.277 135.416 214.793 147.384 213.695 152.022L213.136 151.643C208.05 146.463 205.166 140.011 201.146 134.052C196.042 126.487 188.778 119.073 181.8 113.226C177.936 109.987 173.795 107.356 169.44 104.843C167.853 103.927 166.071 103.222 164.566 102.197C163.855 101.714 163.643 101.473 163.288 100.722C163.906 99.855 164.565 99.859 165.563 99.553Z" fill="#6ABE5C"/>
<path d="M46.513 98.6589C47.834 99.2599 49.326 99.8699 50.286 101.01C52.407 103.529 53.712 107.479 55.286 110.429C57.029 113.696 59.314 116.72 61.606 119.618C68.322 128.111 76.36 136.285 85.469 142.182C88.924 144.418 92.73 146.122 96.133 148.389C96.823 148.849 97.718 149.321 97.876 150.153C97.116 150.407 96.345 150.668 95.56 150.833C90.853 151.82 81.014 146.894 77.167 144.253C65.798 136.446 54.332 123.208 49.398 110.285C47.968 106.541 47.255 102.585 46.513 98.6589Z" fill="#6ABE5C"/>
<path d="M156.099 157.266L156.646 157.696C156.66 157.893 156.68 158.09 156.69 158.288C157.018 165.052 145.339 181.398 140.583 186.343C132.131 195.13 117.186 204.928 104.779 205.212L104.448 205.121L104.391 204.762C109.354 201.233 114.601 198.194 119.569 194.714C125.914 190.27 131.757 184.975 137.098 179.377C139.973 176.379 142.706 173.248 145.289 169.994C148.64 165.753 151.806 160.538 156.099 157.266Z" fill="#6ABE5C"/>
<path d="M146.564 47.077L150.558 46.838C146.876 50.807 142.147 53.31 137.667 56.269C133.722 58.845 130.026 61.782 126.624 65.043C122.271 69.178 118.238 73.637 114.558 78.383C110.792 83.266 107.683 88.459 103.082 92.649L100.414 94.789C101.663 88.091 104.916 82.343 108.398 76.572C117.127 62.104 129.991 51.175 146.564 47.077Z" fill="#6ABE5C"/>
</g>

</svg>
