<svg width="842" height="595" viewBox="0 0 842 595" fill="none" xmlns="http://www.w3.org/2000/svg">
<rect width="595" height="842" transform="matrix(0 -1 1 0 0 595)" fill="white"/>
<g filter="url(#filter0_d_167_495)">
<path d="M460.493 229.136C464.238 229.239 469.123 230.978 472.745 232.082C492.268 238.036 506.894 246.829 521.082 261.635C534.657 275.803 542.84 293.506 547.634 312.332C548.637 316.272 550.067 321.032 549.997 325.088C548.807 323.869 547.158 317.728 546.188 315.62C543.576 309.946 540.323 304.277 537.003 298.991C529.178 286.535 519.573 274.031 509.06 263.718C499.891 254.723 488.795 246.462 478.101 239.376C474.409 236.956 470.627 234.679 466.76 232.55C464.896 231.53 462.808 230.721 461.055 229.529C460.866 229.4 460.681 229.267 460.493 229.136Z" fill="#203264"/>
<path d="M293 272.059C294.331 273.304 295.078 277.405 295.804 279.214C297.971 284.621 301.207 289.909 304.124 294.937C320.988 324.003 345.607 345.263 374.038 362.537C376.334 363.932 378.762 365.021 381.075 366.376C378.24 366.145 374.948 364.862 372.152 364.089C356.83 359.85 342.941 353.824 330.699 343.42C313.376 328.698 302.613 309.823 296.484 288.123C295.03 282.975 293.437 277.394 293 272.059Z" fill="#203264"/>
<path d="M488.891 342.423C488.923 342.523 488.968 342.619 488.985 342.722C489.185 343.904 488.246 346.173 487.878 347.401C484.472 358.91 479.312 369.823 472.579 379.754C458.296 400.393 437.125 413.358 413.128 419.657C407.671 421.089 402.027 421.974 396.483 423C396.947 422.012 399.481 421.453 400.548 421.073C410.669 417.471 420.182 412.383 429.179 406.531C448.717 393.821 464.08 375.945 478.11 357.584C481.81 352.744 485.997 347.791 488.891 342.423Z" fill="#203264"/>
<path d="M442.499 173L442.654 173.277C441.508 173.996 440.345 174.357 439.057 174.755L438.466 174.933C434.886 176.037 431.432 177.898 428.047 179.5C402.681 191.499 383.779 211.811 366.654 233.5C360.79 240.928 354.653 248.55 350.227 256.951L349.901 256.538C352.979 243.884 358.096 231.817 365.053 220.814C379.552 198.025 400.463 184.37 426.08 176.898C431.469 175.327 437.022 174.214 442.499 173Z" fill="#203264"/>
<path d="M459.12 244.274C471.121 246.038 482.811 249.56 492.914 256.524C515.271 271.933 529.742 298.078 534.53 324.486C533.262 323.739 532.074 320.539 531.409 319.24C526.778 310.185 522.012 301.224 515.572 293.293C504.421 279.564 491.546 265.712 477.057 255.485C472.979 252.607 468.624 250.042 464.356 247.453C462.808 246.514 460.993 245.732 459.571 244.634C459.418 244.517 459.27 244.394 459.12 244.274Z" fill="#6ABE5C"/>
<path d="M475.263 337.373C475.394 338.693 474.86 340.16 474.545 341.459C472.346 350.53 468.408 359.812 463.166 367.528C447.738 390.241 421.82 403.196 395.475 408.149C395.532 407.968 395.542 407.766 395.647 407.608C396.246 406.709 408.243 401.296 410.175 400.27C413.095 398.721 415.944 396.917 418.7 395.091C439.118 381.565 461.806 357.957 475.263 337.373Z" fill="#6ABE5C"/>
<path d="M308.461 271.997C309.995 273.026 315.783 285.954 317.33 288.707C319.757 292.984 322.394 297.139 325.231 301.155C328.238 305.353 331.908 309.27 335.385 313.083C349.63 328.708 364.81 341.427 383.43 351.547C373.765 352.36 357.321 344.725 349.445 339.388C330.579 326.606 317.126 305.082 310.89 283.398C309.821 279.678 309.186 275.799 308.461 271.997Z" fill="#6ABE5C"/>
<path d="M439.29 189.487C440.097 189.407 440.605 189.272 441.371 189.607C439.861 191.598 431.558 194.679 428.823 196.194C426.114 197.724 423.482 199.387 420.937 201.177C402.527 214.019 377.645 239.545 365.836 258.541C365.544 259.06 365.305 259.352 364.84 259.723C364.821 259.621 364.79 259.52 364.781 259.416C364.531 256.321 371.195 239.967 372.871 236.621C374.364 233.632 376.093 230.767 378.042 228.054C392.236 208.266 415.13 193.429 439.29 189.487Z" fill="#6ABE5C"/>
<path d="M322.6 269.737C324.828 271.934 328.075 279.656 329.92 282.839C332.168 286.718 334.822 290.487 337.479 294.095C346.227 305.975 359.634 319.221 371.539 327.926C376.191 331.327 381.587 333.948 386.076 337.511L386.537 337.883C376.497 338.832 363.845 332.178 355.958 326.523C340.821 315.669 329.498 297.747 324.504 279.869C323.585 276.583 323.148 273.103 322.6 269.737Z" fill="#203264"/>
<path d="M458.392 258.171C466.232 257.784 473.781 262.224 480.348 266.029C486.105 269.364 491.974 273.635 496.611 278.442C507.162 289.38 514.805 305.024 518.667 319.595C519.054 321.057 520.066 324.491 519.345 325.751C517.12 321.6 515.117 317.361 512.683 313.32C504.055 298.999 492.44 286.182 479.782 275.317C472.999 269.495 465.657 265.166 458.732 259.739C458.274 259.379 458.018 259.159 457.83 258.587L458.392 258.171Z" fill="#203264"/>
<path d="M462.244 332.675L462.537 333.221C460.629 341.499 457.176 348.966 452.82 356.224C440.17 377.303 419.279 387.283 396.336 393.078L396.183 392.947C396.22 392.275 396.523 392.333 397.059 392.024C401.904 389.228 406.57 386.525 411.281 383.477C431.579 370.344 447.105 351.216 462.244 332.675Z" fill="#203264"/>
<path d="M442.188 204.264L442.418 204.294L442.594 204.569C440.774 206.574 433.646 209.618 430.803 211.403C426.671 213.996 422.608 216.899 418.831 219.991C402.549 233.319 392.25 247.967 378.976 263.712L378.649 263.692L378.312 263.27C378.46 255.87 385.763 243.202 389.623 237.201C401.558 218.649 421.156 208.774 442.188 204.264Z" fill="#203264"/>
<path d="M456.563 272.553C457.892 272.663 459.248 272.754 460.554 273.034C476.458 276.432 489.514 291.113 497.735 304.329C500.277 308.416 505.793 320.384 504.695 325.022L504.136 324.643C499.05 319.463 496.166 313.011 492.146 307.052C487.042 299.487 479.778 292.073 472.8 286.226C468.936 282.987 464.795 280.356 460.44 277.843C458.853 276.927 457.071 276.222 455.566 275.197C454.855 274.714 454.643 274.473 454.288 273.722C454.906 272.855 455.565 272.859 456.563 272.553Z" fill="#6ABE5C"/>
<path d="M337.513 271.659C338.834 272.26 340.326 272.87 341.286 274.01C343.407 276.529 344.712 280.479 346.286 283.429C348.029 286.696 350.314 289.72 352.606 292.618C359.322 301.111 367.36 309.285 376.469 315.182C379.924 317.418 383.73 319.122 387.133 321.389C387.823 321.849 388.718 322.321 388.876 323.153C388.116 323.407 387.345 323.668 386.56 323.833C381.853 324.82 372.014 319.894 368.167 317.253C356.798 309.446 345.332 296.208 340.398 283.285C338.968 279.541 338.255 275.585 337.513 271.659Z" fill="#6ABE5C"/>
<path d="M447.099 330.266L447.646 330.696C447.66 330.893 447.68 331.09 447.69 331.288C448.018 338.052 436.339 354.398 431.583 359.343C423.131 368.13 408.186 377.928 395.779 378.212L395.448 378.121L395.391 377.762C400.354 374.233 405.601 371.194 410.569 367.714C416.914 363.27 422.757 357.975 428.098 352.377C430.973 349.379 433.706 346.248 436.289 342.994C439.64 338.753 442.806 333.538 447.099 330.266Z" fill="#6ABE5C"/>
<path d="M437.564 220.077L441.558 219.838C437.876 223.807 433.147 226.31 428.667 229.269C424.722 231.845 421.026 234.782 417.624 238.043C413.271 242.178 409.238 246.637 405.558 251.383C401.792 256.266 398.683 261.459 394.082 265.649L391.414 267.789C392.663 261.091 395.916 255.343 399.398 249.572C408.127 235.104 420.991 224.175 437.564 220.077Z" fill="#6ABE5C"/>
</g>
<defs>
<filter id="filter0_d_167_495" x="291" y="173" width="261" height="256" filterUnits="userSpaceOnUse" color-interpolation-filters="sRGB">
<feFlood flood-opacity="0" result="BackgroundImageFix"/>
<feColorMatrix in="SourceAlpha" type="matrix" values="0 0 0 0 0 0 0 0 0 0 0 0 0 0 0 0 0 0 127 0" result="hardAlpha"/>
<feOffset dy="4"/>
<feGaussianBlur stdDeviation="1"/>
<feComposite in2="hardAlpha" operator="out"/>
<feColorMatrix type="matrix" values="0 0 0 0 0 0 0 0 0 0 0 0 0 0 0 0 0 0 0.25 0"/>
<feBlend mode="normal" in2="BackgroundImageFix" result="effect1_dropShadow_167_495"/>
<feBlend mode="normal" in="SourceGraphic" in2="effect1_dropShadow_167_495" result="shape"/>
</filter>
</defs>
</svg>
