<svg width="256" height="256" viewBox="0 0 261 256" fill="none" xmlns="http://www.w3.org/2000/svg">
  <path d="M169.493 56.136C173.238 56.239 178.123 57.978 181.745 59.082C201.268 65.036 215.894 73.829 230.082 88.635C243.657 102.803 251.84 120.506 256.634 139.332C257.637 143.272 259.067 148.032 258.997 152.088C257.807 150.869 256.158 144.728 255.188 142.62C252.576 136.946 249.323 131.277 246.003 125.991C238.178 113.535 228.573 101.031 218.06 90.718C208.891 81.723 197.795 73.462 187.101 66.376C183.409 63.956 179.627 61.679 175.76 59.55C173.896 58.53 171.808 57.721 170.055 56.529C169.866 56.4 169.681 56.267 169.493 56.136Z" fill="#203264"/>
  <path d="M2 99.059C3.331 100.304 4.07799 104.405 4.80399 106.214C6.97099 111.621 10.207 116.909 13.124 121.937C29.988 151.003 54.607 172.263 83.038 189.537C85.334 190.932 87.762 192.021 90.075 193.376C87.24 193.145 83.948 191.862 81.152 191.089C65.83 186.85 51.941 180.824 39.699 170.42C22.376 155.698 11.613 136.823 5.48401 115.123C4.03001 109.975 2.437 104.394 2 99.059Z" fill="#203264"/>
  <path d="M197.891 169.423C197.923 169.523 197.968 169.619 197.985 169.722C198.185 170.904 197.246 173.173 196.878 174.401C193.472 185.91 188.312 196.823 181.579 206.754C167.296 227.393 146.125 240.358 122.128 246.657C116.671 248.089 111.027 248.974 105.483 250C105.947 249.012 108.481 248.453 109.548 248.073C119.669 244.471 129.182 239.383 138.179 233.531C157.717 220.821 173.08 202.945 187.11 184.584C190.81 179.744 194.997 174.791 197.891 169.423Z" fill="#203264"/>
  <path d="M151.499 0L151.654 0.277C150.508 0.996 149.345 1.357 148.057 1.755L147.466 1.933C143.886 3.037 140.432 4.898 137.047 6.5C111.681 18.499 92.779 38.811 75.654 60.5C69.79 67.928 63.653 75.55 59.227 83.951L58.901 83.538C61.979 70.884 67.096 58.817 74.053 47.814C88.552 25.025 109.463 11.37 135.08 3.898C140.469 2.327 146.022 1.214 151.499 0Z" fill="#203264"/>
  <path d="M168.12 71.274C180.121 73.038 191.811 76.56 201.914 83.524C224.271 98.933 238.742 125.078 243.53 151.486C242.262 150.739 241.074 147.539 240.409 146.24C235.778 137.185 231.012 128.224 224.572 120.293C213.421 106.564 200.546 92.712 186.057 82.485C181.979 79.607 177.624 77.042 173.356 74.453C171.808 73.514 169.993 72.732 168.571 71.634C168.418 71.517 168.27 71.394 168.12 71.274Z" fill="#6ABE5C"/>
  <path d="M184.263 164.373C184.394 165.693 183.86 167.16 183.545 168.459C181.346 177.53 177.408 186.812 172.166 194.528C156.738 217.241 130.82 230.196 104.475 235.149C104.532 234.968 104.542 234.766 104.647 234.608C105.246 233.709 117.243 228.296 119.175 227.27C122.095 225.721 124.944 223.917 127.7 222.091C148.118 208.565 170.806 184.957 184.263 164.373Z" fill="#6ABE5C"/>
  <path d="M17.461 98.9969C18.995 100.026 24.783 112.954 26.33 115.707C28.757 119.984 31.394 124.139 34.231 128.155C37.238 132.353 40.908 136.27 44.385 140.083C58.63 155.708 73.81 168.427 92.43 178.547C82.765 179.36 66.321 171.725 58.445 166.388C39.579 153.606 26.126 132.082 19.89 110.398C18.821 106.678 18.186 102.799 17.461 98.9969Z" fill="#6ABE5C"/>
  <path d="M148.29 16.487C149.097 16.407 149.605 16.272 150.371 16.607C148.861 18.598 140.558 21.679 137.823 23.194C135.114 24.724 132.482 26.387 129.937 28.177C111.527 41.019 86.645 66.545 74.836 85.541C74.544 86.06 74.305 86.352 73.84 86.723C73.821 86.621 73.79 86.52 73.781 86.416C73.531 83.321 80.195 66.967 81.871 63.621C83.364 60.632 85.093 57.767 87.042 55.054C101.236 35.266 124.13 20.429 148.29 16.487Z" fill="#6ABE5C"/>
  <path d="M31.6 96.7371C33.828 98.9341 37.075 106.656 38.92 109.839C41.168 113.718 43.822 117.487 46.479 121.095C55.227 132.975 68.634 146.221 80.539 154.926C85.191 158.327 90.587 160.948 95.076 164.511L95.537 164.883C85.497 165.832 72.845 159.178 64.958 153.523C49.821 142.669 38.498 124.747 33.504 106.869C32.585 103.583 32.148 100.103 31.6 96.7371Z" fill="#203264"/>
  <path d="M167.392 85.171C175.232 84.784 182.781 89.224 189.348 93.029C195.105 96.364 200.974 100.635 205.611 105.442C216.162 116.38 223.805 132.024 227.667 146.595C228.054 148.057 229.066 151.491 228.345 152.751C226.12 148.6 224.117 144.361 221.683 140.32C213.055 125.999 201.44 113.182 188.782 102.317C181.999 96.495 174.657 92.166 167.732 86.739C167.274 86.379 167.018 86.159 166.83 85.587L167.392 85.171Z" fill="#203264"/>
  <path d="M171.244 159.675L171.537 160.221C169.629 168.499 166.176 175.966 161.82 183.224C149.17 204.303 128.279 214.283 105.336 220.078L105.183 219.947C105.22 219.275 105.523 219.333 106.059 219.024C110.904 216.228 115.57 213.525 120.281 210.477C140.579 197.344 156.105 178.216 171.244 159.675Z" fill="#203264"/>
  <path d="M151.188 31.264L151.418 31.294L151.594 31.569C149.774 33.574 142.646 36.618 139.803 38.403C135.671 40.996 131.608 43.899 127.831 46.991C111.549 60.319 101.25 74.967 87.976 90.712L87.649 90.692L87.312 90.27C87.46 82.87 94.763 70.202 98.623 64.201C110.558 45.649 130.156 35.774 151.188 31.264Z" fill="#203264"/>
  <path d="M165.563 99.553C166.892 99.663 168.248 99.754 169.554 100.034C185.458 103.432 198.514 118.113 206.735 131.329C209.277 135.416 214.793 147.384 213.695 152.022L213.136 151.643C208.05 146.463 205.166 140.011 201.146 134.052C196.042 126.487 188.778 119.073 181.8 113.226C177.936 109.987 173.795 107.356 169.44 104.843C167.853 103.927 166.071 103.222 164.566 102.197C163.855 101.714 163.643 101.473 163.288 100.722C163.906 99.855 164.565 99.859 165.563 99.553Z" fill="#6ABE5C"/>
  <path d="M46.513 98.6589C47.834 99.2599 49.326 99.8699 50.286 101.01C52.407 103.529 53.712 107.479 55.286 110.429C57.029 113.696 59.314 116.72 61.606 119.618C68.322 128.111 76.36 136.285 85.469 142.182C88.924 144.418 92.73 146.122 96.133 148.389C96.823 148.849 97.718 149.321 97.876 150.153C97.116 150.407 96.345 150.668 95.56 150.833C90.853 151.82 81.014 146.894 77.167 144.253C65.798 136.446 54.332 123.208 49.398 110.285C47.968 106.541 47.255 102.585 46.513 98.6589Z" fill="#6ABE5C"/>
  <path d="M156.099 157.266L156.646 157.696C156.66 157.893 156.68 158.09 156.69 158.288C157.018 165.052 145.339 181.398 140.583 186.343C132.131 195.13 117.186 204.928 104.779 205.212L104.448 205.121L104.391 204.762C109.354 201.233 114.601 198.194 119.569 194.714C125.914 190.27 131.757 184.975 137.098 179.377C139.973 176.379 142.706 173.248 145.289 169.994C148.64 165.753 151.806 160.538 156.099 157.266Z" fill="#6ABE5C"/>
  <path d="M146.564 47.077L150.558 46.838C146.876 50.807 142.147 53.31 137.667 56.269C133.722 58.845 130.026 61.782 126.624 65.043C122.271 69.178 118.238 73.637 114.558 78.383C110.792 83.266 107.683 88.459 103.082 92.649L100.414 94.789C101.663 88.091 104.916 82.343 108.398 76.572C117.127 62.104 129.991 51.175 146.564 47.077Z" fill="#6ABE5C"/>
</svg>
